<svg width="173" height="128" viewBox="0 0 173 128" fill="none" xmlns="http://www.w3.org/2000/svg">
<g clip-path="url(#clip0_76_3807)">
<path d="M75.239 53.1578C78.9249 54.5035 82.332 56.5549 82.4178 61.6614C82.4178 66.8549 82.3106 65.4802 82.3749 68.413C82.4393 71.7887 81.3026 72.6013 79.91 73.2628C79.564 73.3863 79.2036 73.4654 78.8376 73.498L-0.000976562 73.5622V69.0545L1.00553 61.4262C2.63584 51.3844 6.35501 41.7937 11.9241 33.2704C17.4931 24.7471 24.7888 17.4797 33.3425 11.9351C54.879 -1.63215 81.3225 -4.23959 105.367 7.235C108.887 8.93413 112.267 10.9061 115.478 13.1327L168.474 43.7087C162.192 46.2092 149.808 47.4266 142.157 46.9775C120.25 45.6959 101.1 33.644 84.8123 20.1622C82.1249 17.9367 78.8571 16.5208 75.3917 16.0802C71.9263 15.6397 68.4067 16.1928 65.2452 17.6748C62.0837 19.1568 59.4111 21.5062 57.5405 24.4481C55.6699 27.3899 54.6786 30.8023 54.6829 34.2855C54.6615 48.9495 64.9043 50.396 75.2344 53.1532" fill="#077DBB"/>
<path d="M90.6032 66.318C90.6032 61.1245 90.7105 62.4992 90.6461 59.5664C90.5818 56.1906 91.7185 55.378 93.0896 54.738C93.4327 54.6045 93.7945 54.5251 94.162 54.5028L173.001 54.4386V58.9463L171.994 66.5746C170.364 76.6164 166.645 86.2071 161.076 94.7304C155.507 103.254 148.211 110.521 139.657 116.066C118.121 129.633 91.6772 132.24 67.6328 120.766C64.1129 119.067 60.7321 117.095 57.5217 114.868L4.52148 84.2875C10.8026 81.787 23.1871 80.5696 30.8362 81.0186C52.7588 82.3002 71.8932 94.3522 88.1812 107.834C90.8686 110.059 94.1364 111.475 97.6018 111.916C101.067 112.356 104.587 111.803 107.748 110.321C110.91 108.839 113.582 106.49 115.453 103.548C117.324 100.606 118.315 97.1939 118.311 93.7107C118.353 69.3944 90.8882 81.4677 90.6017 66.318" fill="#077DBB"/>
</g>
<defs>
<clipPath id="clip0_76_3807">
<rect width="173" height="128" fill="white"/>
</clipPath>
</defs>
</svg>
