<svg width="20" height="17" viewBox="0 0 20 17" fill="none" xmlns="http://www.w3.org/2000/svg">
<g clip-path="url(#clip0_1583_2644)">
<path d="M8.69814 7.06023C9.12426 7.23896 9.51814 7.51142 9.52806 8.18961C9.52806 8.87938 9.51566 8.69679 9.5231 9.08631C9.53054 9.53465 9.39913 9.64258 9.23814 9.73042C9.19814 9.74683 9.15648 9.75733 9.11416 9.76166L-0.00012207 9.77019V9.17151L0.116237 8.15837C0.304712 6.8247 0.734674 5.55093 1.37849 4.41893C2.02231 3.28693 2.86575 2.32173 3.85461 1.58534C6.34439 -0.216557 9.40143 -0.562858 12.1811 0.961111C12.5881 1.18678 12.9789 1.44867 13.35 1.7444L19.4767 5.80527C18.7506 6.13737 17.3188 6.29906 16.4344 6.23941C13.9017 6.0692 11.6879 4.46855 9.80488 2.67801C9.49419 2.38243 9.11642 2.19438 8.71579 2.13587C8.31516 2.07736 7.90828 2.15082 7.54278 2.34764C7.17729 2.54447 6.86832 2.85651 6.65207 3.24722C6.43581 3.63793 6.32122 4.09114 6.32172 4.55376C6.31924 6.50132 7.50337 6.69344 8.69761 7.05962" fill="#077DBB"/>
<path d="M10.4744 8.80786C10.4744 8.1181 10.4868 8.30068 10.4793 7.91117C10.4719 7.46283 10.6033 7.3549 10.7618 7.2699C10.8015 7.25217 10.8433 7.24163 10.8858 7.23866L20.0001 7.23013V7.82881L19.8837 8.84195C19.6952 10.1756 19.2653 11.4494 18.6214 12.5814C17.9776 13.7134 17.1342 14.6786 16.1453 15.415C13.6556 17.2169 10.5985 17.5632 7.81881 16.0392C7.41188 15.8135 7.02105 15.5516 6.6499 15.2559L0.522705 11.1944C1.24884 10.8623 2.68058 10.7007 3.56487 10.7603C6.09928 10.9305 8.31135 12.5312 10.1943 14.3217C10.505 14.6173 10.8828 14.8053 11.2834 14.8638C11.6841 14.9224 12.091 14.8489 12.4564 14.6521C12.8219 14.4552 13.1309 14.1432 13.3472 13.7525C13.5634 13.3618 13.678 12.9086 13.6775 12.446C13.6825 9.21645 10.5073 10.8199 10.4742 8.80786" fill="#077DBB"/>
</g>
<defs>
<clipPath id="clip0_1583_2644">
<rect width="20" height="17" fill="white"/>
</clipPath>
</defs>
</svg>
