<svg width="164" height="72" viewBox="0 0 164 72" fill="none" xmlns="http://www.w3.org/2000/svg">
<path d="M83.5938 11.8919C83.5938 6.90128 83.698 8.22231 83.6355 5.40407C83.573 2.16016 84.6769 1.3793 86.0084 0.764279C86.3415 0.635977 86.6928 0.559725 87.0498 0.538245L163.61 0.476562V4.80817L162.632 12.1385C161.049 21.788 157.438 31.0041 152.029 39.1945C146.621 47.3848 139.536 54.3683 131.23 59.6963C110.316 72.7336 84.6367 75.2392 61.2873 64.2128C57.8691 62.5801 54.5861 60.6852 51.4685 58.5455L0 29.1595C6.09957 26.7567 18.1261 25.5868 25.5542 26.0183C46.8432 27.2498 65.4246 38.8311 81.2418 51.7862C83.8516 53.9248 87.0249 55.2854 90.3902 55.7087C93.7554 56.132 97.1733 55.6005 100.243 54.1764C103.314 52.7523 105.909 50.4947 107.725 47.6677C109.542 44.8408 110.505 41.5618 110.5 38.2146C110.542 14.8481 83.8706 26.4499 83.5924 11.8919" fill="#F5F6F7"/>
</svg>
